<svg width="159" height="64" viewBox="9 0 140 64" fill="none" xmlns="http://www.w3.org/2000/svg">
<path d="M10.1721 47.4248H147.017" stroke="#FFF" stroke-miterlimit="10"/>
<path d="M16.3454 8.05005H16.7382L18.679 13.141H18.0629L17.5623 11.7777H15.5213L15.0207 13.141H14.4199L16.3454 8.05005ZM17.3774 11.3002L16.8537 9.83688C16.7715 9.611 16.7086 9.4326 16.6649 9.30167C16.6212 9.17074 16.5841 9.05661 16.5533 8.95887H16.5379C16.5071 9.05647 16.4686 9.17074 16.4224 9.30167C16.3762 9.4326 16.3119 9.611 16.2299 9.83688L15.6984 11.3002H17.3774Z" fill="#FFF"/>
<path d="M24.0627 12.8639C23.8213 12.9923 23.5825 13.0833 23.3464 13.1373C23.1102 13.1913 22.8766 13.2181 22.6455 13.2181C22.2655 13.2181 21.9266 13.1553 21.6289 13.0295C21.331 12.9038 21.0781 12.7279 20.8703 12.5019C20.6624 12.276 20.5032 12.0064 20.3928 11.6932C20.2823 11.3801 20.2273 11.0385 20.2273 10.6688C20.2273 10.2991 20.2875 9.95256 20.4082 9.62908C20.5288 9.30561 20.6996 9.02582 20.9203 8.78958C21.141 8.55349 21.4068 8.36738 21.7174 8.23127C22.028 8.0953 22.3708 8.0271 22.7457 8.0271C23.0177 8.0271 23.2628 8.05399 23.4811 8.10804C23.6993 8.16195 23.8725 8.22483 24.0009 8.29666V8.83579C23.8211 8.73833 23.6337 8.66131 23.4387 8.60474C23.2435 8.5483 23.0151 8.52002 22.7532 8.52002C22.4606 8.52002 22.196 8.57533 21.9599 8.68568C21.7237 8.79616 21.5222 8.94628 21.3553 9.13616C21.1883 9.32619 21.0588 9.54954 20.9664 9.80623C20.874 10.063 20.8278 10.3377 20.8278 10.6303C20.8278 10.9384 20.8714 11.2208 20.9587 11.4775C21.0459 11.7343 21.1706 11.955 21.3322 12.1399C21.4939 12.3247 21.6904 12.4685 21.9214 12.5712C22.1525 12.674 22.4117 12.7252 22.6993 12.7252C22.9354 12.7252 23.1523 12.6958 23.35 12.6367C23.5476 12.5778 23.7339 12.502 23.9084 12.4094L24.0627 12.8639Z" fill="#FFF"/>
<path d="M26.0188 8.06543H27.0508C27.3177 8.06543 27.5424 8.08853 27.7248 8.13475C27.907 8.18096 28.065 8.24775 28.1984 8.33499C28.4037 8.4634 28.554 8.62514 28.649 8.82021C28.744 9.01542 28.7915 9.22589 28.7915 9.45176C28.7915 9.80604 28.7016 10.0924 28.5219 10.3106C28.3421 10.5289 28.0879 10.6894 27.7594 10.792V10.8074C27.8364 10.8486 27.9237 10.9371 28.0213 11.0731C28.1187 11.2092 28.2343 11.3902 28.3679 11.616L29.2921 13.1409H28.6297L27.744 11.6699C27.6258 11.4696 27.518 11.3106 27.4205 11.1924C27.3229 11.0743 27.2357 11.005 27.1587 10.9844H26.5887V13.1409H26.0188V8.06543ZM27.0662 10.5069C27.3383 10.5069 27.5719 10.4505 27.7671 10.3375C27.9006 10.2605 28.0071 10.1514 28.0868 10.0102C28.1664 9.86906 28.2063 9.70102 28.2063 9.50567C28.2063 9.35682 28.1805 9.21958 28.1292 9.09369C28.0779 8.96794 27.9957 8.8639 27.8828 8.7817C27.8006 8.70986 27.694 8.65203 27.5631 8.60834C27.4322 8.56479 27.2692 8.54294 27.0741 8.54294H26.5889V10.5069H27.0662Z" fill="#FFF"/>
<path d="M31.1714 8.06543H33.6206L33.4357 8.55835H31.7413V10.299H33.4126V10.7919H31.7413V12.648H33.6668V13.1409H31.1714V8.06543Z" fill="#FFF"/>
<path d="M35.7771 8.06543H36.994C37.4457 8.06543 37.8412 8.12844 38.1801 8.25419C38.519 8.38008 38.7987 8.55457 39.0196 8.77792C39.2403 9.00127 39.4059 9.26706 39.5164 9.57513C39.6268 9.8832 39.6821 10.217 39.6821 10.5764C39.6821 10.941 39.6268 11.2799 39.5164 11.593C39.4059 11.9063 39.2392 12.1771 39.0158 12.4056C38.7924 12.6342 38.51 12.8138 38.1686 12.9448C37.827 13.0757 37.4278 13.1411 36.9709 13.1411H35.7771V8.06543ZM36.9632 12.648C37.3585 12.648 37.6909 12.5919 37.9605 12.4793C38.2301 12.3667 38.4482 12.2159 38.6152 12.0266C38.7819 11.8372 38.9012 11.616 38.9734 11.3628C39.0452 11.1096 39.0812 10.8398 39.0812 10.5534C39.0812 10.2619 39.0388 9.99453 38.954 9.75157C38.8693 9.50861 38.7396 9.29884 38.5652 9.1224C38.3905 8.94596 38.1697 8.80789 37.9028 8.70818C37.6358 8.60848 37.3175 8.55849 36.9478 8.55849H36.347V12.6482L36.9632 12.648Z" fill="#FFF"/>
<path d="M41.7612 8.06543H42.3312V13.1409H41.7612V8.06543Z" fill="#FFF"/>
<path d="M45.6043 8.55835H44.1487V8.06543H47.7917L47.6068 8.55835H46.1743V13.1486H45.6043V8.55835Z" fill="#FFF"/>
<path d="M50.8722 8.05005H51.265L53.2059 13.141H52.5898L52.0891 11.7777H50.0481L49.5475 13.141H48.9468L50.8722 8.05005ZM51.9043 11.3002L51.3806 9.83688C51.2984 9.611 51.2355 9.4326 51.1918 9.30167C51.1481 9.17074 51.111 9.05661 51.0802 8.95887H51.0648C51.034 9.05647 50.9955 9.17074 50.9493 9.30167C50.903 9.4326 50.8388 9.611 50.7567 9.83688L50.2253 11.3002H51.9043Z" fill="#FFF"/>
<path d="M58.5895 12.8639C58.3481 12.9923 58.1094 13.0833 57.8733 13.1373C57.637 13.1913 57.4034 13.2181 57.1724 13.2181C56.7923 13.2181 56.4535 13.1553 56.1557 13.0295C55.8579 12.9038 55.605 12.7279 55.3972 12.5019C55.1892 12.276 55.03 12.0064 54.9197 11.6932C54.8092 11.3801 54.7542 11.0385 54.7542 10.6688C54.7542 10.2991 54.8144 9.95256 54.9351 9.62908C55.0556 9.30561 55.2265 9.02582 55.4472 8.78958C55.6679 8.55349 55.9337 8.36738 56.2442 8.23127C56.5548 8.0953 56.8976 8.0271 57.2725 8.0271C57.5446 8.0271 57.7897 8.05399 58.008 8.10804C58.2261 8.16195 58.3994 8.22483 58.5278 8.29666V8.83579C58.348 8.73833 58.1606 8.66131 57.9655 8.60474C57.7703 8.5483 57.5419 8.52002 57.2801 8.52002C56.9874 8.52002 56.7229 8.57533 56.4868 8.68568C56.2506 8.79616 56.049 8.94628 55.8821 9.13616C55.7152 9.32619 55.5857 9.54954 55.4932 9.80623C55.4008 10.063 55.3546 10.3377 55.3546 10.6303C55.3546 10.9384 55.3983 11.2208 55.4855 11.4775C55.5728 11.7343 55.6974 11.955 55.859 12.1399C56.0208 12.3247 56.2172 12.4685 56.4483 12.5712C56.6793 12.674 56.9385 12.7252 57.2262 12.7252C57.4623 12.7252 57.6792 12.6958 57.8769 12.6367C58.0745 12.5778 58.2607 12.502 58.4352 12.4094L58.5895 12.8639Z" fill="#FFF"/>
<path d="M60.5457 8.06543H61.1156V13.1409H60.5457V8.06543Z" fill="#FFF"/>
<path d="M65.6674 13.2184C65.3131 13.2184 64.9844 13.1567 64.6815 13.0335C64.3785 12.9103 64.118 12.7369 63.8997 12.5137C63.6814 12.2904 63.5094 12.0195 63.3837 11.7011C63.2578 11.3828 63.1951 11.026 63.1951 10.6305C63.1951 10.2454 63.2567 9.89382 63.3799 9.57538C63.5031 9.25709 63.6751 8.98234 63.8959 8.75128C64.1166 8.52023 64.3785 8.34197 64.6815 8.21608C64.9844 8.09033 65.3131 8.02731 65.6674 8.02731C66.0267 8.02731 66.3579 8.09159 66.6609 8.21986C66.9638 8.34827 67.2243 8.52793 67.4427 8.75899C67.6609 8.99004 67.8316 9.26479 67.9548 9.58308C68.078 9.90152 68.1396 10.2506 68.1396 10.6305C68.1396 11.026 68.0755 11.3841 67.9471 11.705C67.8187 12.026 67.6441 12.2981 67.4234 12.5214C67.2025 12.7448 66.9407 12.9169 66.6378 13.0374C66.3348 13.158 66.0113 13.2184 65.6674 13.2184ZM65.6674 12.7254C65.9497 12.7254 66.2065 12.6754 66.4375 12.5753C66.6686 12.4752 66.8651 12.3328 67.0268 12.1478C67.1885 11.963 67.3143 11.7423 67.4042 11.4854C67.494 11.2288 67.539 10.9438 67.539 10.6305C67.539 10.3328 67.4979 10.0556 67.4158 9.79873C67.3336 9.54205 67.2129 9.3187 67.0538 9.12867C66.8946 8.93879 66.6981 8.78979 66.4646 8.68197C66.2309 8.57414 65.9652 8.52023 65.6675 8.52023C65.3851 8.52023 65.1284 8.57162 64.8973 8.67427C64.6663 8.77705 64.4698 8.92072 64.3081 9.10557C64.1463 9.29041 64.0204 9.51251 63.9307 9.77171C63.8408 10.0311 63.7958 10.3173 63.7958 10.6304C63.7958 10.9436 63.8408 11.2286 63.9307 11.4853C64.0204 11.7421 64.1463 11.9628 64.3081 12.1477C64.4698 12.3325 64.6663 12.4751 64.8973 12.5752C65.1284 12.6753 65.3849 12.7254 65.6674 12.7254ZM65.8291 6.64868H66.4684L65.8137 7.78085H65.3824L65.8291 6.64868Z" fill="#FFF"/>
<path d="M73.9315 13.1409L71.4977 9.92157C71.3437 9.72133 71.2076 9.5404 71.0896 9.37866C70.9714 9.21692 70.8687 9.07199 70.7815 8.94358H70.7661C70.7763 9.07199 70.7827 9.19914 70.7854 9.32489C70.7879 9.45078 70.7892 9.61378 70.7892 9.81403V13.1412H70.2192V8.06543H70.7661L73.1074 11.1616C73.2717 11.3772 73.4141 11.5698 73.5349 11.7392C73.6555 11.9086 73.7596 12.0575 73.8468 12.1859H73.8622C73.8518 12.0525 73.8468 11.9203 73.8468 11.7892C73.8468 11.6581 73.8468 11.4926 73.8468 11.2924V8.06543H74.409V13.1409H73.9315Z" fill="#FFF"/>
<path d="M79.4688 8.06543H80.0385V13.1409H79.4688V8.06543Z" fill="#FFF"/>
<path d="M86.0769 13.1409L83.6431 9.92157C83.4889 9.72133 83.353 9.5404 83.2349 9.37866C83.1167 9.21692 83.0141 9.07199 82.9268 8.94358H82.9114C82.9217 9.07199 82.9281 9.19914 82.9308 9.32489C82.9334 9.45078 82.9345 9.61378 82.9345 9.81403V13.1412H82.3647V8.06543H82.9114L85.2529 11.1616C85.4172 11.3772 85.5596 11.5698 85.6803 11.7392C85.8009 11.9086 85.9049 12.0575 85.9923 12.1859H86.0077C85.9974 12.0525 85.9923 11.9203 85.9923 11.7892C85.9923 11.6581 85.9923 11.4926 85.9923 11.2924V8.06543H86.5547V13.1409H86.0769Z" fill="#FFF"/>
<path d="M88.8726 12.3859C88.9959 12.4681 89.1512 12.5451 89.3387 12.6169C89.526 12.6889 89.7379 12.7248 89.974 12.7248C90.1126 12.7248 90.2436 12.7108 90.3668 12.6825C90.49 12.6543 90.5979 12.6067 90.6904 12.5399C90.7828 12.4733 90.8571 12.3873 90.9138 12.282C90.9702 12.1768 90.9985 12.0497 90.9985 11.9007C90.9985 11.7004 90.943 11.531 90.8321 11.3924C90.7215 11.2537 90.5836 11.1317 90.4188 11.0264C90.2538 10.9213 90.0734 10.8198 89.8778 10.7223C89.682 10.6248 89.5015 10.5131 89.3367 10.3872C89.1719 10.2614 89.034 10.1137 88.9233 9.94427C88.8126 9.77482 88.7571 9.56435 88.7571 9.31271C88.7571 9.13305 88.7904 8.96501 88.8574 8.80817C88.9243 8.65162 89.0219 8.5155 89.1505 8.39998C89.279 8.28445 89.4357 8.19329 89.6207 8.12649C89.8058 8.05983 90.0166 8.02637 90.2531 8.02637C90.4843 8.02637 90.6964 8.05073 90.8891 8.09946C91.082 8.14834 91.2374 8.20099 91.3557 8.25728V8.78871C91.1957 8.70399 91.0227 8.63775 90.837 8.59028C90.6512 8.54295 90.4602 8.51914 90.264 8.51914C90.1503 8.51914 90.038 8.53203 89.9271 8.55765C89.8162 8.58328 89.718 8.62557 89.6327 8.68452C89.5476 8.74348 89.478 8.82036 89.4238 8.91516C89.3696 9.00996 89.3426 9.12661 89.3426 9.26496C89.3426 9.45457 89.3981 9.61505 89.5087 9.7457C89.6194 9.87635 89.7572 9.99426 89.9222 10.0994C90.087 10.2044 90.2675 10.3057 90.4631 10.403C90.6588 10.5005 90.8393 10.6146 91.0041 10.7453C91.1689 10.876 91.3069 11.0298 91.4176 11.2067C91.5282 11.3837 91.5838 11.6027 91.5838 11.864C91.5838 12.0742 91.5445 12.2639 91.4659 12.4331C91.3874 12.6022 91.2783 12.7445 91.1387 12.8598C90.9989 12.9751 90.8289 13.0637 90.6287 13.1251C90.4284 13.1865 90.2076 13.2173 89.9664 13.2173C89.6736 13.2173 89.4157 13.1788 89.1923 13.1017C88.969 13.0247 88.7829 12.935 88.634 12.8322L88.8726 12.3859Z" fill="#FFF"/>
<path d="M94.9956 8.55835H93.5398V8.06543H97.1829L96.9981 8.55835H95.5657V13.1486H94.9957L94.9956 8.55835Z" fill="#FFF"/>
<path d="M98.8696 8.06543H99.4394V13.1409H98.8696V8.06543Z" fill="#FFF"/>
<path d="M102.713 8.55835H101.257V8.06543H104.9L104.715 8.55835H103.283V13.1486H102.713L102.713 8.55835Z" fill="#FFF"/>
<path d="M108.82 13.2182C108.353 13.2182 107.971 13.1258 107.676 12.9409C107.381 12.7561 107.172 12.4865 107.049 12.1322C106.972 11.8961 106.933 11.6239 106.933 11.3158V8.05811H107.503V11.2621C107.503 11.5393 107.536 11.7756 107.603 11.9706C107.69 12.2121 107.835 12.398 108.038 12.529C108.241 12.6599 108.502 12.7253 108.82 12.7253C109.144 12.7253 109.405 12.6599 109.606 12.529C109.806 12.398 109.949 12.2119 110.037 11.9706C110.078 11.868 110.105 11.7576 110.118 11.6395C110.13 11.5214 110.137 11.388 110.137 11.239V8.05811H110.707V11.316C110.707 11.6446 110.663 11.9219 110.576 12.1478C110.453 12.497 110.242 12.7628 109.944 12.945C109.647 13.1272 109.272 13.2182 108.82 13.2182Z" fill="#FFF"/>
<path d="M116.583 12.8639C116.342 12.9923 116.103 13.0833 115.867 13.1373C115.631 13.1913 115.397 13.2181 115.166 13.2181C114.786 13.2181 114.447 13.1553 114.15 13.0295C113.852 12.9038 113.599 12.7279 113.391 12.5019C113.183 12.276 113.024 12.0064 112.913 11.6932C112.803 11.3801 112.748 11.0385 112.748 10.6688C112.748 10.2991 112.808 9.95256 112.929 9.62908C113.049 9.30561 113.22 9.02582 113.441 8.78958C113.662 8.55349 113.927 8.36738 114.238 8.23127C114.549 8.0953 114.891 8.0271 115.266 8.0271C115.538 8.0271 115.783 8.05399 116.002 8.10804C116.22 8.16195 116.393 8.22483 116.522 8.29666V8.83579C116.342 8.73833 116.155 8.66131 115.959 8.60474C115.764 8.5483 115.536 8.52002 115.274 8.52002C114.981 8.52002 114.717 8.57533 114.481 8.68568C114.244 8.79616 114.043 8.94628 113.876 9.13616C113.709 9.32619 113.58 9.54954 113.487 9.80623C113.395 10.063 113.349 10.3377 113.349 10.6303C113.349 10.9384 113.392 11.2208 113.48 11.4775C113.567 11.7343 113.691 11.955 113.853 12.1399C114.015 12.3247 114.211 12.4685 114.442 12.5712C114.673 12.674 114.933 12.7252 115.22 12.7252C115.456 12.7252 115.673 12.6958 115.871 12.6367C116.069 12.5778 116.255 12.502 116.429 12.4094L116.583 12.8639Z" fill="#FFF"/>
<path d="M118.532 8.06543H119.102V13.1409H118.532V8.06543Z" fill="#FFF"/>
<path d="M123.654 13.2181C123.299 13.2181 122.971 13.1565 122.668 13.0333C122.365 12.9101 122.104 12.7367 121.886 12.5135C121.668 12.2901 121.496 12.0193 121.37 11.7009C121.244 11.3826 121.181 11.0258 121.181 10.6303C121.181 10.2452 121.243 9.89361 121.366 9.57517C121.489 9.25687 121.661 8.98213 121.882 8.75107C122.103 8.52002 122.365 8.34175 122.668 8.21586C122.971 8.09011 123.299 8.0271 123.653 8.0271C124.013 8.0271 124.344 8.09137 124.647 8.21965C124.95 8.34806 125.21 8.52772 125.429 8.75877C125.647 8.98983 125.818 9.26458 125.941 9.58287C126.064 9.90131 126.126 10.2504 126.126 10.6303C126.126 11.0258 126.061 11.3838 125.933 11.7048C125.805 12.0258 125.63 12.2978 125.409 12.5212C125.189 12.7445 124.927 12.9166 124.624 13.0372C124.321 13.1578 123.998 13.2181 123.654 13.2181ZM123.654 12.7252C123.936 12.7252 124.193 12.6752 124.424 12.5751C124.655 12.475 124.851 12.3326 125.013 12.1476C125.175 11.9627 125.301 11.742 125.39 11.4852C125.48 11.2285 125.525 10.9436 125.525 10.6303C125.525 10.3326 125.484 10.0553 125.402 9.79852C125.32 9.54184 125.199 9.31849 125.04 9.12846C124.881 8.93858 124.684 8.78958 124.451 8.68176C124.217 8.57393 123.951 8.52002 123.654 8.52002C123.371 8.52002 123.114 8.57141 122.883 8.67405C122.652 8.77684 122.456 8.92051 122.294 9.10536C122.133 9.2902 122.007 9.51229 121.917 9.7715C121.827 10.0308 121.782 10.3171 121.782 10.6302C121.782 10.9434 121.827 11.2284 121.917 11.4851C122.007 11.7419 122.133 11.9626 122.294 12.1474C122.456 12.3323 122.652 12.4748 122.883 12.575C123.114 12.6751 123.371 12.7252 123.654 12.7252Z" fill="#FFF"/>
<path d="M131.917 13.1409L129.484 9.92157C129.33 9.72133 129.194 9.5404 129.075 9.37866C128.957 9.21692 128.855 9.07199 128.767 8.94358H128.752C128.762 9.07199 128.769 9.19914 128.771 9.32489C128.774 9.45078 128.775 9.61378 128.775 9.81403V13.1412H128.205V8.06543H128.752L131.094 11.1616C131.258 11.3772 131.4 11.5698 131.521 11.7392C131.641 11.9086 131.746 12.0575 131.833 12.1859H131.848C131.838 12.0525 131.833 11.9203 131.833 11.7892C131.833 11.6581 131.833 11.4926 131.833 11.2924V8.06543H132.395V13.1409H131.917Z" fill="#FFF"/>
<path d="M136.115 8.05005H136.508L138.449 13.141H137.833L137.332 11.7777H135.291L134.79 13.141H134.19L136.115 8.05005ZM137.147 11.3002L136.623 9.83688C136.541 9.611 136.478 9.4326 136.435 9.30167C136.391 9.17074 136.354 9.05661 136.323 8.95887H136.308C136.277 9.05647 136.238 9.17074 136.192 9.30167C136.146 9.4326 136.082 9.611 136 9.83688L135.468 11.3002H137.147Z" fill="#FFF"/>
<path d="M140.243 8.05811H140.813V12.6484H142.7V13.1413H140.243V8.05811Z" fill="#FFF"/>
<path d="M11.438 15.791H15.504C16.4949 15.791 17.3774 15.9191 18.152 16.1754C18.9264 16.4317 19.5812 16.799 20.1167 17.2773C20.6519 17.7557 21.0619 18.3365 21.3468 19.0199C21.6313 19.7033 21.7739 20.4721 21.7739 21.3263C21.7739 22.2146 21.6116 23.012 21.287 23.718C20.9624 24.4244 20.5096 25.025 19.9288 25.5204C19.3479 26.0158 18.6587 26.3946 17.8616 26.6565C17.0643 26.9186 16.1874 27.0494 15.2307 27.0494H11.438V15.791ZM15.299 24.8456C15.9482 24.8456 16.5061 24.7546 16.9732 24.5722C17.4401 24.3902 17.8245 24.1395 18.1264 23.8205C18.428 23.5018 18.6475 23.1372 18.7841 22.7272C18.9208 22.3171 18.9892 21.8788 18.9892 21.4117C18.9892 20.3071 18.6702 19.4614 18.0324 18.8747C17.3945 18.2882 16.4663 17.9949 15.2477 17.9949H14.0519V24.8456H15.299Z" fill="#FFF"/>
<path d="M24.4219 15.791H31.1872L30.5209 17.9949H27.0357V20.267H30.5721V22.4709H27.0357V24.8456H31.153V27.0494H24.4219V15.791Z" fill="#FFF"/>
<path d="M39.5239 15.7395H41.6765L46.3404 27.0492H43.5387L42.4624 24.367H38.8064L37.7813 27.0492H35.0991L39.5239 15.7395ZM41.6765 22.2827L41.1469 20.7281C41.0214 20.341 40.9219 20.022 40.8479 19.7713C40.7737 19.521 40.7139 19.3045 40.6685 19.1221H40.6344C40.5887 19.316 40.526 19.5381 40.4464 19.7884C40.3666 20.0391 40.2526 20.3581 40.1048 20.7451L39.541 22.2827H41.6765Z" fill="#FFF"/>
<path d="M47.3311 15.791H49.9449V24.8456H53.8059V27.0494H47.3311V15.791Z" fill="#FFF"/>
<path d="M57.1883 17.9949H53.8911V15.791H63.3557L62.6894 17.9949H59.8022V27.0494H57.1883V17.9949Z" fill="#FFF"/>
<path d="M67.49 15.7395H69.6426L74.3065 27.0492H71.5047L70.4284 24.367H66.7724L65.7474 27.0492H63.0652L67.49 15.7395ZM69.6427 22.2827L69.1131 20.7281C68.9876 20.341 68.8881 20.022 68.8141 19.7713C68.7399 19.521 68.6801 19.3045 68.6347 19.1221H68.6006C68.5549 19.316 68.4922 19.5381 68.4126 19.7884C68.3328 20.0391 68.2188 20.3581 68.071 20.7451L67.5072 22.2827H69.6427Z" fill="#FFF"/>
<path d="M87.9221 26.2635C87.2272 26.6394 86.558 26.893 85.9147 27.0238C85.2711 27.1546 84.6476 27.2202 84.044 27.2202C83.0645 27.2202 82.2076 27.0777 81.473 26.7931C80.7384 26.5086 80.1234 26.1156 79.6279 25.6143C79.1325 25.1133 78.7593 24.5124 78.5089 23.812C78.2582 23.1115 78.1331 22.3513 78.1331 21.5312C78.1331 20.7227 78.2783 19.9624 78.5687 19.2505C78.8591 18.5389 79.2718 17.9179 79.8073 17.3883C80.3425 16.8587 80.9917 16.4402 81.7549 16.1327C82.5178 15.8251 83.3779 15.6714 84.3346 15.6714C84.9724 15.6714 85.5447 15.72 86.0517 15.8166C86.5582 15.9135 87.011 16.0416 87.4097 16.201V18.5928C86.4642 18.0917 85.4623 17.8411 84.4029 17.8411C83.7991 17.8411 83.278 17.9409 82.8397 18.14C82.4011 18.3394 82.0394 18.6072 81.7549 18.943C81.47 19.2791 81.2594 19.6691 81.1228 20.1132C80.986 20.5574 80.9178 21.0187 80.9178 21.4971C80.9178 22.0211 80.9972 22.5024 81.1569 22.9407C81.3163 23.3792 81.5469 23.7551 81.8487 24.0682C82.1503 24.3816 82.512 24.6234 82.9335 24.7943C83.3548 24.9651 83.8331 25.0505 84.3686 25.0505C84.9608 25.0505 85.4761 24.9737 85.9147 24.8199C86.353 24.6662 86.7831 24.4641 87.2046 24.2134L87.9221 26.2635Z" fill="#FFF"/>
<path d="M92.5689 15.7395H94.7215L99.3855 27.0492H96.5837L95.5074 24.367H91.8514L90.8265 27.0492H88.1443L92.5689 15.7395ZM94.7215 22.2827L94.1919 20.7281C94.0664 20.341 93.967 20.022 93.8929 19.7713C93.8187 19.521 93.7589 19.3045 93.7136 19.1221H93.6795C93.6339 19.316 93.5711 19.5381 93.4915 19.7884C93.4118 20.0391 93.2977 20.3581 93.1499 20.7451L92.5862 22.2827H94.7215Z" fill="#FFF"/>
<path d="M100.377 15.791H102.991V24.8456H106.851V27.0494H100.377V15.791Z" fill="#FFF"/>
<path d="M108.047 15.791H110.661V27.0494H108.047V15.791Z" fill="#FFF"/>
<path d="M112.881 15.791H116.947C117.938 15.791 118.821 15.9191 119.595 16.1754C120.37 16.4317 121.025 16.799 121.56 17.2773C122.095 17.7557 122.505 18.3365 122.79 19.0199C123.075 19.7033 123.217 20.4721 123.217 21.3263C123.217 22.2146 123.055 23.012 122.73 23.718C122.406 24.4244 121.953 25.025 121.372 25.5204C120.791 26.0158 120.102 26.3946 119.305 26.6565C118.508 26.9186 117.631 27.0494 116.674 27.0494H112.881L112.881 15.791ZM116.742 24.8456C117.392 24.8456 117.949 24.7546 118.417 24.5722C118.883 24.3902 119.268 24.1395 119.57 23.8205C119.871 23.5018 120.091 23.1372 120.227 22.7272C120.364 22.3171 120.433 21.8788 120.433 21.4117C120.433 20.3071 120.114 19.4614 119.476 18.8747C118.838 18.2882 117.91 17.9949 116.691 17.9949H115.495V24.8456H116.742Z" fill="#FFF"/>
<path d="M128.189 15.7395H130.341L135.005 27.0492H132.204L131.127 24.367H127.471L126.446 27.0492H123.764L128.189 15.7395ZM130.341 22.2827L129.812 20.7281C129.686 20.341 129.587 20.022 129.513 19.7713C129.439 19.521 129.379 19.3045 129.333 19.1221H129.299C129.254 19.316 129.191 19.5381 129.111 19.7884C129.032 20.0391 128.918 20.3581 128.77 20.7451L128.206 22.2827H130.341Z" fill="#FFF"/>
<path d="M135.996 15.791H140.062C141.053 15.791 141.935 15.9191 142.71 16.1754C143.484 16.4317 144.139 16.799 144.675 17.2773C145.21 17.7557 145.62 18.3365 145.905 19.0199C146.189 19.7033 146.332 20.4721 146.332 21.3263C146.332 22.2146 146.169 23.012 145.845 23.718C145.52 24.4244 145.067 25.025 144.487 25.5204C143.906 26.0158 143.217 26.3946 142.419 26.6565C141.622 26.9186 140.745 27.0494 139.789 27.0494H135.996L135.996 15.791ZM139.857 24.8456C140.506 24.8456 141.064 24.7546 141.531 24.5722C141.998 24.3902 142.383 24.1395 142.684 23.8205C142.986 23.5018 143.205 23.1372 143.342 22.7272C143.479 22.3171 143.547 21.8788 143.547 21.4117C143.547 20.3071 143.228 19.4614 142.59 18.8747C141.952 18.2882 141.024 17.9949 139.806 17.9949H138.61V24.8456H139.857Z" fill="#FFF"/>
<path d="M10.7744 29.7207H12.3204L16.443 35.927C16.7566 36.4052 17.0178 36.8047 17.2272 37.1258C17.4362 37.4472 17.6305 37.7569 17.8097 38.0556H17.8545C18.0337 37.7569 18.2316 37.4322 18.4482 37.081C18.6646 36.7302 18.9223 36.3157 19.2212 35.8375L23.0974 29.7208H24.6433V44.486H22.9853V35.0085C22.9853 34.6203 22.9853 34.2018 22.9853 33.7538C22.9853 33.3057 23 32.8876 23.0301 32.4991H22.9853C22.8208 32.7981 22.6416 33.1151 22.4476 33.4513C22.2532 33.7873 22.0814 34.0673 21.9323 34.2915L18.2802 40.1169H17.4064L13.4407 34.1796C13.2761 33.9555 13.1008 33.6979 12.9141 33.4065C12.7272 33.1153 12.5668 32.8278 12.4324 32.5439H12.3876C12.4174 32.8877 12.4324 33.291 12.4324 33.7539C12.4324 34.2172 12.4324 34.6276 12.4324 34.9862V44.4861H10.7744V29.7207Z" fill="#FFF"/>
<path d="M33.8738 44.7101C32.5144 44.7101 31.4055 44.4412 30.5466 43.9035C29.6875 43.3658 29.0791 42.5817 28.7206 41.5509C28.4965 40.8641 28.3845 40.0722 28.3845 39.176V29.6985H30.0425V39.0191C30.0425 39.8257 30.1396 40.513 30.3338 41.0804C30.5877 41.7828 31.0094 42.3239 31.5997 42.7049C32.1895 43.0858 32.9475 43.2763 33.8738 43.2763C34.8149 43.2763 35.5766 43.0858 36.1592 42.7049C36.7417 42.3239 37.1597 41.7828 37.4139 41.0804C37.5333 40.7819 37.6117 40.4608 37.6491 40.117C37.6862 39.7736 37.7051 39.3853 37.7051 38.952V29.6985H39.3631V39.176C39.3631 40.132 39.2361 40.9387 38.9823 41.5957C38.6238 42.6117 38.0111 43.3845 37.145 43.9147C36.2786 44.4451 35.188 44.7101 33.8738 44.7101Z" fill="#FFF"/>
<path d="M43.105 29.6985H44.763V43.0521H50.2523V44.486H43.105V29.6985Z" fill="#FFF"/>
<path d="M55.4502 31.1546H51.2156V29.7207H61.8133L61.2756 31.1546H57.1082V44.5082H55.4502V31.1546Z" fill="#FFF"/>
<path d="M63.8071 29.7207H65.4651V44.4858H63.8071V29.7207Z" fill="#FFF"/>
<path d="M79.7594 43.6797C79.0572 44.0532 78.3626 44.3182 77.6757 44.4751C76.9886 44.6319 76.309 44.7103 75.6368 44.7103C74.5313 44.7103 73.5454 44.5273 72.6793 44.1614C71.8128 43.7956 71.0774 43.2841 70.4724 42.6266C69.8675 41.9696 69.4044 41.1854 69.0833 40.2741C68.7619 39.3632 68.6016 38.3696 68.6016 37.2942C68.6016 36.2187 68.7769 35.2105 69.1281 34.2694C69.4789 33.3284 69.9757 32.5145 70.618 31.8273C71.2601 31.1404 72.0331 30.5989 72.937 30.2029C73.8406 29.8073 74.8375 29.6091 75.9281 29.6091C76.7196 29.6091 77.4328 29.6875 78.0678 29.8444C78.7026 30.0012 79.2066 30.1844 79.58 30.3933V31.9617C79.0572 31.6783 78.512 31.4541 77.9445 31.2895C77.3766 31.1254 76.7122 31.0431 75.9504 31.0431C75.099 31.0431 74.3295 31.2037 73.6426 31.5248C72.9553 31.8462 72.369 32.2832 71.8838 32.8355C71.3982 33.3882 71.0212 34.0381 70.7523 34.7848C70.4835 35.5318 70.349 36.3307 70.349 37.1821C70.349 38.0784 70.4758 38.9001 70.7299 39.6469C70.9838 40.3939 71.3461 41.036 71.8166 41.5737C72.2871 42.1115 72.8584 42.5297 73.5306 42.8284C74.2028 43.1274 74.9568 43.2765 75.7935 43.2765C76.4804 43.2765 77.1117 43.1907 77.6868 43.0187C78.2616 42.8472 78.8033 42.6266 79.3112 42.3578L79.7594 43.6797Z" fill="#FFF"/>
<path d="M86.5929 29.6763H87.7356L93.3817 44.4862H91.5893L90.1329 40.5205H84.1955L82.7393 44.4862H80.9917L86.5929 29.6763ZM89.5954 39.1312L88.0718 34.8743C87.8326 34.2173 87.6495 33.698 87.5229 33.3171C87.3957 32.9361 87.2875 32.6039 87.198 32.3201H87.1532C87.0636 32.6039 86.9517 32.9361 86.8172 33.3171C86.6828 33.698 86.4959 34.2173 86.2571 34.8743L84.7111 39.1312H89.5954Z" fill="#FFF"/>
<path d="M95.6892 29.7207H97.2352L101.358 35.927C101.671 36.4052 101.932 36.8047 102.142 37.1258C102.351 37.4472 102.545 37.7569 102.724 38.0556H102.769C102.948 37.7569 103.146 37.4322 103.363 37.081C103.579 36.7302 103.837 36.3157 104.136 35.8375L108.012 29.7208H109.558V44.486H107.9V35.0085C107.9 34.6203 107.9 34.2018 107.9 33.7538C107.9 33.3057 107.915 32.8876 107.945 32.4991H107.9C107.736 32.7981 107.556 33.1151 107.362 33.4513C107.168 33.7873 106.996 34.0673 106.847 34.2915L103.195 40.1169H102.321L98.3555 34.1796C98.1909 33.9555 98.0154 33.6979 97.8289 33.4065C97.642 33.1153 97.4816 32.8278 97.3472 32.5439H97.3025C97.3322 32.8877 97.3472 33.291 97.3472 33.7539C97.3472 34.2172 97.3472 34.6276 97.3472 34.9862V44.4861H95.6892V29.7207Z" fill="#FFF"/>
<path d="M113.411 29.7207H116.19C116.907 29.7207 117.523 29.7767 118.038 29.8887C118.554 30.0008 119.005 30.1688 119.394 30.3929C120.066 30.7815 120.589 31.308 120.962 31.9724C121.335 32.6373 121.522 33.44 121.522 34.381C121.522 35.2475 121.328 36.0469 120.94 36.7784C120.551 37.5105 119.924 38.0779 119.058 38.4812C118.684 38.6457 118.255 38.7802 117.769 38.8845C117.284 38.9891 116.705 39.0413 116.033 39.0413H115.07V44.4858H113.412L113.411 29.7207ZM116.167 37.6522C116.645 37.6522 117.06 37.6112 117.411 37.529C117.762 37.447 118.064 37.3385 118.318 37.2041C119.319 36.6815 119.819 35.7405 119.819 34.381C119.819 33.7538 119.7 33.2012 119.461 32.723C119.222 32.2452 118.871 31.8716 118.408 31.6028C118.154 31.4386 117.848 31.3153 117.489 31.2331C117.131 31.1511 116.697 31.1098 116.189 31.1098H115.069V37.6522H116.167Z" fill="#FFF"/>
<path d="M130.036 44.7101C128.677 44.7101 127.568 44.4412 126.709 43.9035C125.85 43.3658 125.242 42.5817 124.883 41.5509C124.659 40.8641 124.547 40.0722 124.547 39.176V29.6985H126.205V39.0191C126.205 39.8257 126.302 40.513 126.496 41.0804C126.75 41.7828 127.172 42.3239 127.762 42.7049C128.352 43.0858 129.11 43.2763 130.036 43.2763C130.977 43.2763 131.739 43.0858 132.322 42.7049C132.904 42.3239 133.322 41.7828 133.576 41.0804C133.696 40.7819 133.774 40.4608 133.812 40.117C133.849 39.7736 133.868 39.3853 133.868 38.952V29.6985H135.526V39.176C135.526 40.132 135.399 40.9387 135.145 41.5957C134.786 42.6117 134.174 43.3845 133.307 43.9147C132.441 44.4451 131.351 44.7101 130.036 44.7101Z" fill="#FFF"/>
<path d="M139.245 42.2906C139.604 42.5296 140.055 42.7538 140.601 42.9627C141.146 43.1721 141.762 43.2764 142.449 43.2764C142.852 43.2764 143.233 43.2354 143.592 43.1532C143.95 43.0711 144.264 42.9329 144.533 42.7385C144.802 42.5446 145.018 42.2943 145.183 41.9881C145.347 41.682 145.429 41.3124 145.429 40.879C145.429 40.2965 145.268 39.8034 144.946 39.4001C144.624 38.9968 144.222 38.6423 143.743 38.3359C143.263 38.0298 142.738 37.7347 142.169 37.4509C141.599 37.1674 141.075 36.8424 140.595 36.4762C140.116 36.1105 139.714 35.6808 139.392 35.1879C139.07 34.695 138.909 34.0826 138.909 33.3508C138.909 32.8281 139.006 32.3389 139.201 31.8833C139.395 31.4279 139.679 31.0319 140.053 30.6958C140.427 30.3597 140.883 30.0948 141.421 29.9004C141.96 29.7065 142.573 29.6091 143.261 29.6091C143.934 29.6091 144.551 29.6803 145.111 29.822C145.672 29.9641 146.124 30.1172 146.469 30.2813V31.8273C146.003 31.5805 145.5 31.388 144.959 31.25C144.419 31.1121 143.863 31.0431 143.293 31.0431C142.962 31.0431 142.635 31.0806 142.313 31.1551C141.99 31.2297 141.704 31.3525 141.457 31.5241C141.209 31.6956 141.006 31.9194 140.848 32.1951C140.691 32.4709 140.612 32.8103 140.612 33.2129C140.612 33.7645 140.773 34.2309 141.095 34.6111C141.417 34.9913 141.818 35.3343 142.298 35.64C142.778 35.9456 143.302 36.24 143.872 36.5233C144.441 36.8069 144.966 37.1389 145.446 37.5189C145.925 37.8991 146.326 38.3465 146.649 38.8611C146.971 39.3758 147.132 40.0129 147.132 40.7733C147.132 41.3848 147.018 41.9367 146.789 42.4288C146.561 42.921 146.243 43.3348 145.837 43.6702C145.431 44.0058 144.936 44.2631 144.354 44.442C143.771 44.6206 143.129 44.7102 142.427 44.7102C141.575 44.7102 140.825 44.5982 140.175 44.3743C139.525 44.1501 138.984 43.889 138.551 43.5899L139.245 42.2906Z" fill="#FFF"/>
<path d="M14.6001 49.8987H15.3507C15.5448 49.8987 15.7082 49.9155 15.8408 49.9491C15.9733 49.9827 16.0882 50.0313 16.1853 50.0947C16.3346 50.1881 16.4439 50.3058 16.513 50.4476C16.582 50.5897 16.6166 50.7427 16.6166 50.9069C16.6166 51.1646 16.5512 51.3728 16.4205 51.5315C16.2897 51.6903 16.1049 51.8069 15.866 51.8816V51.8928C15.922 51.9227 15.9854 51.9871 16.0564 52.086C16.1273 52.185 16.2113 52.3166 16.3085 52.4809L16.9807 53.59H16.499L15.8548 52.5201C15.7688 52.3745 15.6904 52.2588 15.6195 52.1728C15.5485 52.087 15.4851 52.0366 15.4291 52.0216H15.0146V53.59H14.6001V49.8987ZM15.3619 51.6744C15.5597 51.6744 15.7296 51.6334 15.8716 51.5512C15.9686 51.4952 16.0461 51.4158 16.1041 51.3132C16.1619 51.2105 16.1909 51.0883 16.1909 50.9463C16.1909 50.838 16.1721 50.7382 16.1349 50.6466C16.0975 50.5552 16.0377 50.4795 15.9556 50.4197C15.8958 50.3675 15.8184 50.3254 15.7232 50.2937C15.6279 50.2621 15.5093 50.2461 15.3675 50.2461H15.0146V51.6744H15.3619Z" fill="#FFF"/>
<path d="M18.9242 52.335C18.9242 52.4694 18.9438 52.5955 18.9831 52.7131C19.0223 52.8307 19.0791 52.9334 19.1539 53.0212C19.2285 53.1088 19.3201 53.177 19.4284 53.2256C19.5366 53.2742 19.6617 53.2984 19.8036 53.2984C19.9305 53.2984 20.0481 53.2816 20.1565 53.248C20.2648 53.2145 20.3656 53.1716 20.459 53.1192L20.5878 53.4105C20.472 53.4852 20.3394 53.5431 20.1901 53.5841C20.0407 53.6251 19.8933 53.6457 19.7476 53.6457C19.5384 53.6457 19.3555 53.6082 19.1987 53.5335C19.0419 53.4589 18.9111 53.3571 18.8066 53.2283C18.7021 53.0994 18.6246 52.9502 18.5742 52.7802C18.5237 52.6103 18.4985 52.4283 18.4985 52.2342C18.4985 52.0325 18.5256 51.8485 18.5798 51.6824C18.6338 51.5162 18.7086 51.3725 18.8038 51.2511C18.899 51.1299 19.0129 51.0365 19.1455 50.9711C19.278 50.9058 19.4246 50.873 19.5852 50.873C19.9249 50.873 20.1864 50.9954 20.3694 51.2399C20.5523 51.4846 20.6438 51.816 20.6438 52.2343V52.3351H18.9242V52.335ZM20.2181 52.0157C20.2144 51.9149 20.1994 51.816 20.1732 51.7189C20.1469 51.6219 20.1085 51.536 20.0578 51.4612C20.0071 51.3866 19.9434 51.3259 19.8665 51.2791C19.7896 51.2325 19.6988 51.2091 19.5937 51.2091C19.4925 51.2091 19.4006 51.2306 19.318 51.2735C19.2354 51.3165 19.1661 51.3744 19.1099 51.4472C19.0536 51.52 19.0095 51.605 18.9777 51.7019C18.9458 51.7991 18.928 51.9036 18.9244 52.0156H20.2181V52.0157Z" fill="#FFF"/>
<path d="M22.3803 53.1025C22.4549 53.1513 22.5464 53.1959 22.6547 53.2371C22.763 53.2781 22.8918 53.2986 23.0412 53.2986C23.1943 53.2986 23.3269 53.2659 23.4389 53.2005C23.551 53.1353 23.607 53.0261 23.607 52.8729C23.607 52.7758 23.5762 52.6974 23.5146 52.6376C23.4529 52.5778 23.3763 52.5256 23.2849 52.4808C23.1933 52.436 23.0945 52.3921 22.988 52.3491C22.8816 52.3063 22.7826 52.2539 22.6912 52.1923C22.5996 52.1308 22.5231 52.0534 22.4615 51.96C22.3999 51.8666 22.3691 51.747 22.3691 51.6014C22.3691 51.3999 22.4447 51.228 22.5959 51.086C22.7472 50.944 22.9702 50.873 23.2653 50.873C23.3922 50.873 23.5118 50.8852 23.6238 50.9096C23.7358 50.934 23.8347 50.9628 23.9207 50.9964V51.3605C23.831 51.3178 23.7348 51.2819 23.6322 51.2528C23.5294 51.2238 23.4127 51.2091 23.2821 51.2091C23.2185 51.2091 23.1561 51.2149 23.0945 51.2261C23.0328 51.2371 22.9786 51.2569 22.932 51.2849C22.8854 51.313 22.847 51.3514 22.8172 51.4C22.7872 51.4487 22.7724 51.5085 22.7724 51.5797C22.7724 51.6768 22.8032 51.7555 22.8648 51.8155C22.9264 51.8754 23.0039 51.9288 23.0973 51.9755C23.1905 52.0223 23.2905 52.0663 23.3969 52.1074C23.5034 52.1486 23.6032 52.201 23.6966 52.2646C23.79 52.3283 23.8674 52.4068 23.9291 52.5005C23.9907 52.5941 24.0215 52.7158 24.0215 52.8653C24.0215 52.9964 23.9963 53.1115 23.9459 53.2106C23.8954 53.3098 23.8254 53.3911 23.7358 53.4548C23.6462 53.5184 23.5416 53.5662 23.4221 53.598C23.3025 53.6297 23.1757 53.6457 23.0412 53.6457C22.8656 53.6457 22.7108 53.6213 22.5763 53.5728C22.4419 53.5243 22.3317 53.4739 22.2458 53.4215L22.3803 53.1025Z" fill="#FFF"/>
<path d="M26.0826 53.6346C26.0078 53.6346 25.9444 53.6066 25.8921 53.5504C25.8398 53.4946 25.8137 53.4292 25.8137 53.3545C25.8137 53.2799 25.8398 53.2155 25.8921 53.1613C25.9444 53.1071 26.0078 53.0801 26.0826 53.0801C26.1572 53.0801 26.2198 53.1071 26.2702 53.1613C26.3206 53.2155 26.3458 53.2799 26.3458 53.3545C26.3458 53.4292 26.3206 53.4946 26.2702 53.5504C26.2198 53.6066 26.1572 53.6346 26.0826 53.6346Z" fill="#FFF"/>
<path d="M30.9167 49.8987H31.3032L32.3339 51.4503C32.4123 51.5698 32.4776 51.6697 32.5299 51.7501C32.5822 51.8303 32.6308 51.9079 32.6756 51.9824H32.6868C32.7316 51.9079 32.781 51.8267 32.8352 51.7389C32.8893 51.6511 32.9537 51.5476 33.0285 51.4278L33.9975 49.8987H34.384V53.59H33.9695V51.2206C33.9695 51.1236 33.9695 51.019 33.9695 50.9069C33.9695 50.7949 33.9731 50.6904 33.9807 50.5932H33.9695C33.9283 50.668 33.8835 50.7474 33.835 50.8313C33.7865 50.9155 33.7436 50.9855 33.7062 51.0414L32.7932 52.4977H32.5747L31.5833 51.0132C31.5421 50.9573 31.4983 50.8929 31.4517 50.82C31.405 50.7471 31.3649 50.6753 31.3312 50.6043H31.32C31.3275 50.6903 31.3312 50.7911 31.3312 50.9068C31.3312 51.0226 31.3312 51.1254 31.3312 51.2149V53.5898H30.9167V49.8987Z" fill="#FFF"/>
<path d="M36.5793 49.8987H38.3606L38.2261 50.2573H36.9938V51.5232H38.2093V51.8817H36.9938V53.2318H38.3942V53.5902H36.5793V49.8987Z" fill="#FFF"/>
<path d="M43.1327 53.5898L41.3627 51.2484C41.2507 51.1028 41.1517 50.9711 41.0658 50.8535C40.9798 50.7359 40.9052 50.6304 40.8418 50.537H40.8306C40.838 50.6304 40.8426 50.7229 40.8446 50.8142C40.8464 50.9057 40.8474 51.0242 40.8474 51.1698V53.5896H40.4329V49.8983H40.8306L42.5334 52.1501C42.6528 52.3069 42.7564 52.4469 42.8442 52.5702C42.9319 52.6934 43.0075 52.8018 43.0711 52.895H43.0823C43.0747 52.798 43.0711 52.7018 43.0711 52.6066C43.0711 52.5112 43.0711 52.3909 43.0711 52.2453V49.8982H43.48V53.5895H43.1327V53.5898Z" fill="#FFF"/>
<path d="M50.8685 53.5898L49.0985 51.2484C48.9865 51.1028 48.8875 50.9711 48.8017 50.8535C48.7157 50.7359 48.641 50.6304 48.5776 50.537H48.5664C48.5738 50.6304 48.5784 50.7229 48.5804 50.8142C48.5822 50.9057 48.5832 51.0242 48.5832 51.1698V53.5896H48.1687V49.8983H48.5664L50.2692 52.1501C50.3887 52.3069 50.4923 52.4469 50.5801 52.5702C50.6677 52.6934 50.7434 52.8018 50.8069 52.895H50.8181C50.8106 52.798 50.8069 52.7018 50.8069 52.6066C50.8069 52.5112 50.8069 52.3909 50.8069 52.2453V49.8982H51.2158V53.5895H50.8685V53.5898Z" fill="#FFF"/>
<path d="M54.3747 53.646C54.188 53.646 54.0198 53.6104 53.8705 53.5394C53.7211 53.4686 53.5933 53.3705 53.4868 53.2454C53.3804 53.1202 53.2982 52.9737 53.2404 52.8057C53.1824 52.6376 53.1536 52.4565 53.1536 52.2622C53.1536 52.0681 53.1824 51.8861 53.2404 51.7162C53.2982 51.5463 53.3804 51.3987 53.4868 51.2737C53.5933 51.1485 53.7221 51.0506 53.8733 50.9796C54.0246 50.9086 54.1935 50.873 54.3803 50.873C54.5631 50.873 54.7303 50.9086 54.8816 50.9796C55.0328 51.0506 55.1616 51.1485 55.2681 51.2737C55.3745 51.3989 55.4566 51.5463 55.5145 51.7162C55.5724 51.8862 55.6014 52.0682 55.6014 52.2622C55.6014 52.4565 55.5724 52.6376 55.5145 52.8057C55.4566 52.9736 55.3745 53.1202 55.2681 53.2454C55.1616 53.3705 55.0328 53.4686 54.8816 53.5394C54.7303 53.6104 54.5613 53.646 54.3747 53.646ZM54.3775 53.2874C54.5011 53.2874 54.6116 53.2623 54.7091 53.2122C54.8065 53.1622 54.89 53.0916 54.9592 53.0004C55.0285 52.9096 55.0818 52.8017 55.1194 52.6772C55.1569 52.5529 55.1756 52.4145 55.1756 52.2622C55.1756 52.11 55.1569 51.9708 55.1194 51.8445C55.0818 51.7183 55.0285 51.6096 54.9592 51.5186C54.8898 51.4277 54.8065 51.3571 54.7091 51.3069C54.6116 51.2569 54.5029 51.2317 54.3831 51.2317C54.2594 51.2317 54.1479 51.2569 54.0487 51.3069C53.9494 51.357 53.8651 51.4276 53.7958 51.5186C53.7264 51.6096 53.6729 51.7183 53.6354 51.8445C53.598 51.9708 53.5793 52.11 53.5793 52.2622C53.5793 52.4145 53.598 52.5529 53.6354 52.6772C53.6729 52.8017 53.7263 52.9094 53.7958 53.0004C53.8651 53.0915 53.9484 53.162 54.0459 53.2122C54.1432 53.2624 54.2538 53.2874 54.3775 53.2874Z" fill="#FFF"/>
<path d="M57.6793 53.6346C57.6045 53.6346 57.5411 53.6066 57.4888 53.5504C57.4364 53.4946 57.4104 53.4292 57.4104 53.3545C57.4104 53.2799 57.4364 53.2155 57.4888 53.1613C57.5411 53.1071 57.6045 53.0801 57.6793 53.0801C57.7539 53.0801 57.8165 53.1071 57.8669 53.1613C57.9173 53.2155 57.9425 53.2799 57.9425 53.3545C57.9425 53.4292 57.9173 53.4946 57.8669 53.5504C57.8165 53.6066 57.7539 53.6346 57.6793 53.6346Z" fill="#FFF"/>
<path d="M63.5777 53.646C63.3909 53.646 63.221 53.6049 63.068 53.5227C62.9148 53.4406 62.7841 53.3203 62.6759 53.1615C62.5675 53.0027 62.4827 52.8058 62.421 52.5705C62.3594 52.3352 62.3286 52.0645 62.3286 51.7583C62.3286 51.452 62.3594 51.1823 62.421 50.9489C62.4827 50.7156 62.5675 50.5185 62.6759 50.3579C62.7841 50.1974 62.9148 50.076 63.068 49.9938C63.221 49.9116 63.3909 49.8706 63.5777 49.8706C63.7606 49.8706 63.9286 49.9116 64.0818 49.9938C64.2349 50.076 64.3665 50.1973 64.4767 50.3579C64.5868 50.5184 64.6728 50.7156 64.7344 50.9489C64.796 51.1823 64.8268 51.4521 64.8268 51.7583C64.8268 52.0644 64.796 52.3352 64.7344 52.5705C64.6728 52.8058 64.5868 53.0027 64.4767 53.1615C64.3665 53.3203 64.2349 53.4406 64.0818 53.5227C63.9286 53.6049 63.7606 53.646 63.5777 53.646ZM63.5777 53.2874C63.8334 53.2874 64.0345 53.153 64.1813 52.8841C64.3279 52.6153 64.4011 52.24 64.4011 51.7583C64.4011 51.2767 64.3287 50.9013 64.1839 50.6324C64.0391 50.3635 63.8371 50.2291 63.5777 50.2291C63.322 50.2291 63.1208 50.3635 62.9742 50.6324C62.8276 50.9013 62.7543 51.2767 62.7543 51.7583C62.7543 52.24 62.8267 52.6153 62.9714 52.8841C63.116 53.153 63.3182 53.2874 63.5777 53.2874Z" fill="#FFF"/>
<path d="M67.9017 53.646C67.7149 53.646 67.545 53.6049 67.392 53.5227C67.2388 53.4406 67.1081 53.3203 66.9999 53.1615C66.8915 53.0027 66.8066 52.8058 66.745 52.5705C66.6834 52.3352 66.6526 52.0645 66.6526 51.7583C66.6526 51.452 66.6834 51.1823 66.745 50.9489C66.8066 50.7156 66.8915 50.5185 66.9999 50.3579C67.1081 50.1974 67.2388 50.076 67.392 49.9938C67.545 49.9116 67.7149 49.8706 67.9017 49.8706C68.0846 49.8706 68.2526 49.9116 68.4058 49.9938C68.5589 50.076 68.6905 50.1973 68.8007 50.3579C68.9108 50.5184 68.9967 50.7156 69.0584 50.9489C69.12 51.1823 69.1508 51.4521 69.1508 51.7583C69.1508 52.0644 69.12 52.3352 69.0584 52.5705C68.9967 52.8058 68.9108 53.0027 68.8007 53.1615C68.6905 53.3203 68.5589 53.4406 68.4058 53.5227C68.2526 53.6049 68.0846 53.646 67.9017 53.646ZM67.9017 53.2874C68.1574 53.2874 68.3585 53.153 68.5052 52.8841C68.6518 52.6153 68.7251 52.24 68.7251 51.7583C68.7251 51.2767 68.6527 50.9013 68.5079 50.6324C68.3631 50.3635 68.161 50.2291 67.9017 50.2291C67.646 50.2291 67.4448 50.3635 67.2981 50.6324C67.1515 50.9013 67.0783 51.2767 67.0783 51.7583C67.0783 52.24 67.1507 52.6153 67.2953 52.8841C67.44 53.153 67.6422 53.2874 67.9017 53.2874Z" fill="#FFF"/>
<path d="M72.2259 53.646C72.0391 53.646 71.8692 53.6049 71.7162 53.5227C71.563 53.4406 71.4323 53.3203 71.3241 53.1615C71.2157 53.0027 71.1308 52.8058 71.0692 52.5705C71.0076 52.3352 70.9768 52.0645 70.9768 51.7583C70.9768 51.452 71.0076 51.1823 71.0692 50.9489C71.1308 50.7156 71.2157 50.5185 71.3241 50.3579C71.4323 50.1974 71.563 50.076 71.7162 49.9938C71.8692 49.9116 72.0391 49.8706 72.2259 49.8706C72.4088 49.8706 72.5768 49.9116 72.73 49.9938C72.8831 50.076 73.0147 50.1973 73.1249 50.3579C73.235 50.5184 73.321 50.7156 73.3826 50.9489C73.4442 51.1823 73.475 51.4521 73.475 51.7583C73.475 52.0644 73.4442 52.3352 73.3826 52.5705C73.321 52.8058 73.235 53.0027 73.1249 53.1615C73.0147 53.3203 72.8831 53.4406 72.73 53.5227C72.577 53.6049 72.4088 53.646 72.2259 53.646ZM72.2259 53.2874C72.4816 53.2874 72.6827 53.153 72.8294 52.8841C72.9761 52.6153 73.0493 52.24 73.0493 51.7583C73.0493 51.2767 72.9769 50.9013 72.8321 50.6324C72.6873 50.3635 72.4852 50.2291 72.2259 50.2291C71.9702 50.2291 71.769 50.3635 71.6224 50.6324C71.4757 50.9013 71.4025 51.2767 71.4025 51.7583C71.4025 52.24 71.4749 52.6153 71.6196 52.8841C71.7642 53.153 71.9666 53.2874 72.2259 53.2874Z" fill="#FFF"/>
<path d="M76.5501 53.646C76.3633 53.646 76.1935 53.6049 76.0404 53.5227C75.8872 53.4406 75.7566 53.3203 75.6483 53.1615C75.5399 53.0027 75.4551 52.8058 75.3934 52.5705C75.3318 52.3352 75.301 52.0645 75.301 51.7583C75.301 51.452 75.3318 51.1823 75.3934 50.9489C75.4551 50.7156 75.5399 50.5185 75.6483 50.3579C75.7566 50.1974 75.8872 50.076 76.0404 49.9938C76.1935 49.9116 76.3633 49.8706 76.5501 49.8706C76.733 49.8706 76.9011 49.9116 77.0542 49.9938C77.2073 50.076 77.3389 50.1973 77.4491 50.3579C77.5592 50.5184 77.6452 50.7156 77.7068 50.9489C77.7684 51.1823 77.7992 51.4521 77.7992 51.7583C77.7992 52.0644 77.7684 52.3352 77.7068 52.5705C77.6452 52.8058 77.5592 53.0027 77.4491 53.1615C77.3389 53.3203 77.2073 53.4406 77.0542 53.5227C76.9011 53.6049 76.733 53.646 76.5501 53.646ZM76.5501 53.2874C76.8058 53.2874 77.0069 53.153 77.1537 52.8841C77.3003 52.6153 77.3735 52.24 77.3735 51.7583C77.3735 51.2767 77.3011 50.9013 77.1563 50.6324C77.0115 50.3635 76.8095 50.2291 76.5501 50.2291C76.2944 50.2291 76.0932 50.3635 75.9466 50.6324C75.8 50.9013 75.7267 51.2767 75.7267 51.7583C75.7267 52.24 75.7991 52.6153 75.9438 52.8841C76.0884 53.153 76.2906 53.2874 76.5501 53.2874Z" fill="#FFF"/>
<path d="M79.5522 53.5899C79.5784 53.265 79.642 52.9915 79.7427 52.7693C79.8435 52.5472 79.9611 52.3585 80.0957 52.2035C80.2301 52.0488 80.372 51.917 80.5213 51.8088C80.6706 51.7005 80.8079 51.5968 80.933 51.4978C81.0582 51.3989 81.1616 51.2963 81.2438 51.1898C81.326 51.0833 81.3671 50.9536 81.3671 50.8005C81.3671 50.6997 81.3494 50.6129 81.3139 50.5401C81.2783 50.4673 81.2307 50.4076 81.171 50.361C81.1112 50.3142 81.0412 50.2807 80.961 50.26C80.8806 50.2396 80.7957 50.2292 80.7061 50.2292C80.5269 50.2292 80.3597 50.2554 80.2048 50.3076C80.0499 50.36 79.9182 50.416 79.81 50.4757L79.6811 50.1509C79.8007 50.0799 79.9536 50.0155 80.1404 49.9575C80.327 49.8997 80.5269 49.8708 80.7397 49.8708C80.919 49.8708 81.0758 49.8941 81.2102 49.9407C81.3447 49.9872 81.4557 50.0516 81.5435 50.1336C81.6312 50.2158 81.6966 50.3117 81.7394 50.4217C81.7823 50.5318 81.8038 50.65 81.8038 50.7767C81.8038 50.9631 81.7656 51.1216 81.6892 51.2521C81.6126 51.3826 81.5155 51.501 81.3979 51.6073C81.2803 51.7134 81.1513 51.8141 81.0113 51.9092C80.8712 52.0043 80.7368 52.1124 80.608 52.2334C80.4791 52.3546 80.3653 52.4944 80.2664 52.6528C80.1674 52.8113 80.101 53.0042 80.0676 53.2317H81.7982V53.5901H79.5522V53.5899Z" fill="#FFF"/>
<path d="M83.9886 53.1251C84.1081 53.1775 84.2331 53.2175 84.3639 53.2455C84.4947 53.2735 84.6347 53.2875 84.784 53.2875C84.9148 53.2875 85.0389 53.2735 85.1565 53.2455C85.2741 53.2175 85.3768 53.1726 85.4646 53.1111C85.5522 53.0495 85.6214 52.973 85.6717 52.8814C85.7221 52.79 85.7473 52.6789 85.7473 52.548C85.7473 52.2195 85.5717 52.0159 85.2208 51.9376C85.105 51.9114 84.9463 51.8984 84.7447 51.8984H84.3414V51.5399H84.6831C84.8659 51.5399 85.019 51.5213 85.1422 51.4842C85.2656 51.4469 85.3645 51.3968 85.4391 51.3336C85.5137 51.2703 85.5669 51.1968 85.5989 51.1134C85.6305 51.0296 85.6465 50.9413 85.6465 50.8483C85.6465 50.6661 85.5923 50.5175 85.484 50.4021C85.3758 50.2867 85.2058 50.2292 84.9743 50.2292C84.7951 50.2292 84.6307 50.2554 84.4813 50.3076C84.332 50.36 84.2032 50.416 84.0948 50.4757L83.9659 50.1509C84.0966 50.0763 84.2506 50.0109 84.4281 49.9549C84.6055 49.8989 84.7968 49.8708 85.0022 49.8708C85.1852 49.8708 85.3437 49.8961 85.478 49.9463C85.6123 49.9966 85.7238 50.0656 85.8123 50.1532C85.9006 50.2408 85.9662 50.3425 86.0085 50.458C86.0508 50.5734 86.072 50.6945 86.072 50.8214C86.072 51.034 86.0216 51.21 85.9208 51.3497C85.82 51.4895 85.6706 51.5966 85.4727 51.6711V51.6823C85.6892 51.7271 85.8602 51.8226 85.9852 51.9684C86.1103 52.1143 86.1729 52.3052 86.1729 52.5407C86.1729 52.6942 86.1453 52.8373 86.0898 52.9701C86.0345 53.1028 85.9497 53.2198 85.8351 53.3207C85.7204 53.4218 85.5755 53.5012 85.4 53.5592C85.2244 53.617 85.0172 53.6462 84.7783 53.6462C84.6065 53.6462 84.443 53.6293 84.2882 53.5957C84.1333 53.5621 83.9959 53.5193 83.8765 53.4669L83.9886 53.1251Z" fill="#FFF"/>
<path d="M91.9425 53.6458C91.7521 53.6458 91.5727 53.6178 91.4046 53.5617C91.2367 53.5058 91.0901 53.4208 90.9649 53.3069C90.8397 53.1931 90.7409 53.0521 90.6681 52.8839C90.5952 52.7159 90.5588 52.5198 90.5588 52.2958C90.5588 52.0829 90.5944 51.8888 90.6654 51.7132C90.7363 51.5378 90.8333 51.3875 90.9567 51.2623C91.0799 51.1373 91.2246 51.0411 91.3908 50.9738C91.557 50.9066 91.7353 50.8729 91.9257 50.8729C92.0862 50.8729 92.2356 50.8919 92.3737 50.9297V49.6248H92.7827V53.4666C92.6893 53.5188 92.5679 53.5617 92.4185 53.5953C92.2691 53.6289 92.1104 53.6458 91.9425 53.6458ZM91.9592 53.2872C92.0302 53.2872 92.1028 53.2808 92.1778 53.2676C92.2524 53.2547 92.3178 53.2369 92.3737 53.2148V51.2983C92.3066 51.276 92.2429 51.2594 92.1834 51.2482C92.1236 51.2371 92.047 51.2315 91.9536 51.2315C91.8228 51.2315 91.6988 51.2547 91.5812 51.3011C91.4634 51.3474 91.3608 51.4152 91.2731 51.5044C91.1853 51.5936 91.1153 51.7041 91.0631 51.8359C91.0107 51.9677 90.9845 52.1172 90.9845 52.2843C90.9845 52.5926 91.0704 52.8367 91.2423 53.0168C91.4139 53.1973 91.6529 53.2872 91.9592 53.2872Z" fill="#FFF"/>
<path d="M95.3367 52.335C95.3367 52.4694 95.3564 52.5955 95.3955 52.7131C95.4347 52.8307 95.4917 52.9334 95.5665 53.0212C95.6411 53.1088 95.7326 53.177 95.841 53.2256C95.9491 53.2742 96.0743 53.2984 96.2162 53.2984C96.3431 53.2984 96.4607 53.2816 96.5693 53.248C96.6774 53.2145 96.7783 53.1716 96.8716 53.1192L97.0004 53.4105C96.8848 53.4852 96.7522 53.5431 96.6027 53.5841C96.4533 53.6251 96.3059 53.6457 96.1602 53.6457C95.9512 53.6457 95.7681 53.6082 95.6113 53.5335C95.4546 53.4589 95.3237 53.3571 95.2192 53.2283C95.1146 53.0994 95.0372 52.9502 94.9867 52.7802C94.9365 52.6103 94.9111 52.4283 94.9111 52.2342C94.9111 52.0325 94.9382 51.8485 94.9924 51.6824C95.0465 51.5164 95.1212 51.3725 95.2165 51.2511C95.3118 51.1299 95.4256 51.0365 95.5581 50.9711C95.6906 50.9058 95.8372 50.873 95.9979 50.873C96.3377 50.873 96.5991 50.9954 96.7821 51.2399C96.9651 51.4846 97.0566 51.816 97.0566 52.2343V52.3351H95.3367V52.335ZM96.6306 52.0157C96.627 51.9149 96.6118 51.816 96.5857 51.7189C96.5593 51.6219 96.521 51.536 96.4704 51.4612C96.4197 51.3866 96.356 51.3259 96.2791 51.2791C96.2022 51.2325 96.1114 51.2091 96.0063 51.2091C95.9049 51.2091 95.8131 51.2306 95.7306 51.2735C95.648 51.3165 95.5787 51.3744 95.5225 51.4472C95.4662 51.52 95.4221 51.605 95.3903 51.7019C95.3584 51.7991 95.3406 51.9036 95.3368 52.0156H96.6306V52.0157Z" fill="#FFF"/>
<path d="M98.8936 49.6299H99.3025V52.9851C99.3025 53.0935 99.3193 53.1673 99.3529 53.2063C99.3865 53.2455 99.4387 53.2652 99.5097 53.2652C99.5321 53.2652 99.56 53.2605 99.5937 53.2512C99.6275 53.2418 99.6535 53.2335 99.6723 53.2259L99.7619 53.5463C99.7095 53.5721 99.6507 53.5913 99.5855 53.6043C99.5201 53.6171 99.4557 53.6236 99.3922 53.6236C99.2242 53.6236 99.099 53.5787 99.0168 53.4885C98.9346 53.3983 98.8936 53.2736 98.8936 53.1138V49.6299Z" fill="#FFF"/>
<path d="M104.808 50.3188L103.94 50.7445L103.795 50.4142L104.876 49.8708H105.217V53.5901H104.808V50.3188Z" fill="#FFF"/>
<path d="M108.337 50.3188L107.469 50.7445L107.324 50.4142L108.405 49.8708H108.746V53.5901H108.337V50.3188Z" fill="#FFF"/>
<path d="M113.619 49.8987H115.4L115.266 50.2573H114.034V51.5232H115.249V51.8817H114.034V53.2318H115.434V53.5902H113.619V49.8987Z" fill="#FFF"/>
<path d="M117.355 50.9404H117.702L117.753 51.2819C117.898 51.1587 118.047 51.0599 118.198 50.9852C118.349 50.9106 118.511 50.873 118.683 50.873C118.787 50.873 118.886 50.8899 118.98 50.9235C119.073 50.9571 119.156 51.0113 119.229 51.0859C119.302 51.1605 119.359 51.2567 119.402 51.3744C119.445 51.492 119.467 51.6348 119.467 51.803V53.5898H119.058V51.943C119.058 51.8421 119.05 51.7498 119.035 51.6658C119.021 51.5818 118.995 51.5081 118.96 51.4445C118.924 51.3811 118.876 51.3317 118.814 51.2961C118.753 51.2607 118.675 51.2429 118.582 51.2429C118.432 51.2429 118.291 51.2819 118.156 51.3605C118.022 51.4389 117.893 51.5323 117.769 51.6406V53.5898H117.355V50.9404H117.355Z" fill="#FFF"/>
<path d="M121.702 52.335C121.702 52.4694 121.722 52.5955 121.761 52.7131C121.8 52.8307 121.857 52.9334 121.932 53.0212C122.006 53.1088 122.098 53.177 122.206 53.2256C122.314 53.2742 122.439 53.2984 122.581 53.2984C122.708 53.2984 122.826 53.2816 122.935 53.248C123.043 53.2145 123.144 53.1716 123.237 53.1192L123.366 53.4105C123.25 53.4852 123.117 53.5431 122.968 53.5841C122.819 53.6251 122.671 53.6457 122.525 53.6457C122.316 53.6457 122.133 53.6082 121.977 53.5335C121.82 53.4589 121.689 53.3571 121.584 53.2283C121.48 53.0994 121.402 52.9502 121.352 52.7802C121.302 52.6103 121.276 52.4283 121.276 52.2342C121.276 52.0325 121.303 51.8485 121.358 51.6824C121.412 51.5164 121.486 51.3725 121.582 51.2511C121.677 51.1299 121.791 51.0365 121.923 50.9711C122.056 50.9058 122.202 50.873 122.363 50.873C122.703 50.873 122.964 50.9954 123.147 51.2399C123.33 51.4846 123.422 51.816 123.422 52.2343V52.3351H121.702V52.335ZM122.996 52.0157C122.992 51.9149 122.977 51.816 122.951 51.7189C122.925 51.6219 122.886 51.536 122.836 51.4612C122.785 51.3866 122.721 51.3259 122.644 51.2791C122.567 51.2325 122.477 51.2091 122.372 51.2091C122.27 51.2091 122.178 51.2306 122.096 51.2735C122.013 51.3165 121.944 51.3744 121.888 51.4472C121.831 51.52 121.787 51.605 121.756 51.7019C121.724 51.7991 121.706 51.9036 121.702 52.0156H122.996V52.0157Z" fill="#FFF"/>
<path d="M127.589 53.5899C127.615 53.265 127.679 52.9915 127.779 52.7693C127.88 52.5472 127.998 52.3585 128.132 52.2035C128.267 52.0488 128.409 51.917 128.558 51.8088C128.707 51.7005 128.845 51.5968 128.97 51.4978C129.095 51.3989 129.198 51.2963 129.28 51.1898C129.363 51.0833 129.404 50.9536 129.404 50.8005C129.404 50.6997 129.386 50.6129 129.35 50.5401C129.315 50.4673 129.267 50.4076 129.208 50.361C129.148 50.3142 129.078 50.2807 128.998 50.26C128.917 50.2396 128.832 50.2292 128.743 50.2292C128.563 50.2292 128.396 50.2554 128.241 50.3076C128.087 50.36 127.955 50.416 127.847 50.4757L127.718 50.1509C127.837 50.0799 127.99 50.0155 128.177 49.9575C128.364 49.8997 128.563 49.8708 128.776 49.8708C128.956 49.8708 129.112 49.8941 129.247 49.9407C129.381 49.9872 129.492 50.0516 129.58 50.1336C129.668 50.2158 129.733 50.3117 129.776 50.4217C129.819 50.5318 129.84 50.65 129.84 50.7767C129.84 50.9631 129.802 51.1216 129.726 51.2521C129.649 51.3826 129.552 51.501 129.435 51.6073C129.317 51.7134 129.188 51.8141 129.048 51.9092C128.908 52.0043 128.773 52.1124 128.645 52.2334C128.516 52.3546 128.402 52.4944 128.303 52.6528C128.204 52.8113 128.138 53.0042 128.104 53.2317H129.835V53.5901H127.589V53.5899Z" fill="#FFF"/>
<path d="M132.961 53.646C132.774 53.646 132.604 53.6049 132.451 53.5227C132.298 53.4406 132.167 53.3203 132.059 53.1615C131.951 53.0027 131.866 52.8058 131.804 52.5705C131.743 52.3352 131.712 52.0645 131.712 51.7583C131.712 51.452 131.743 51.1823 131.804 50.9489C131.866 50.7156 131.951 50.5185 132.059 50.3579C132.167 50.1973 132.298 50.076 132.451 49.9938C132.604 49.9116 132.774 49.8706 132.961 49.8706C133.144 49.8706 133.312 49.9116 133.465 49.9938C133.618 50.076 133.75 50.1973 133.86 50.3579C133.97 50.5184 134.056 50.7156 134.118 50.9489C134.179 51.1823 134.21 51.4521 134.21 51.7583C134.21 52.0644 134.179 52.3352 134.118 52.5705C134.056 52.8058 133.97 53.0027 133.86 53.1615C133.75 53.3203 133.618 53.4406 133.465 53.5227C133.312 53.6049 133.144 53.646 132.961 53.646ZM132.961 53.2874C133.217 53.2874 133.418 53.153 133.565 52.8841C133.711 52.6153 133.784 52.24 133.784 51.7583C133.784 51.2767 133.712 50.9013 133.567 50.6324C133.423 50.3635 133.22 50.2291 132.961 50.2291C132.705 50.2291 132.504 50.3635 132.357 50.6324C132.211 50.9013 132.138 51.2767 132.138 51.7583C132.138 52.24 132.21 52.6153 132.355 52.8841C132.499 53.153 132.702 53.2874 132.961 53.2874Z" fill="#FFF"/>
<path d="M135.963 53.59C135.989 53.2651 136.052 52.9916 136.153 52.7694C136.254 52.5473 136.372 52.3587 136.506 52.2037C136.641 52.0489 136.782 51.9172 136.932 51.8089C137.081 51.7007 137.218 51.5969 137.343 51.4979C137.469 51.399 137.572 51.2964 137.654 51.19C137.736 51.0834 137.777 50.9537 137.777 50.8007C137.777 50.6998 137.76 50.613 137.724 50.5402C137.689 50.4674 137.641 50.4077 137.581 50.3611C137.522 50.3143 137.452 50.2809 137.371 50.2601C137.291 50.2397 137.206 50.2293 137.117 50.2293C136.937 50.2293 136.77 50.2555 136.615 50.3078C136.46 50.3601 136.329 50.4161 136.22 50.4758L136.091 50.1509C136.211 50.0799 136.364 50.0155 136.551 49.9575C136.737 49.8997 136.937 49.8708 137.15 49.8708C137.329 49.8708 137.486 49.8941 137.621 49.9407C137.755 49.9872 137.866 50.0516 137.954 50.1336C138.042 50.2158 138.107 50.3117 138.15 50.4217C138.193 50.5318 138.214 50.65 138.214 50.7767C138.214 50.9631 138.176 51.1216 138.1 51.2521C138.023 51.3827 137.926 51.501 137.808 51.6073C137.691 51.7134 137.562 51.8141 137.422 51.9092C137.282 52.0043 137.147 52.1124 137.018 52.2334C136.89 52.3546 136.776 52.4944 136.677 52.6528C136.578 52.8113 136.511 53.0042 136.478 53.2317H138.209V53.5901H135.963V53.59Z" fill="#FFF"/>
<path d="M140.394 53.1251C140.513 53.1775 140.638 53.2175 140.769 53.2455C140.9 53.2735 141.04 53.2875 141.189 53.2875C141.32 53.2875 141.444 53.2735 141.562 53.2455C141.679 53.2175 141.782 53.1726 141.87 53.1111C141.957 53.0495 142.026 52.973 142.077 52.8814C142.127 52.79 142.152 52.6789 142.152 52.548C142.152 52.2195 141.977 52.0159 141.626 51.9376C141.51 51.9114 141.351 51.8984 141.15 51.8984H140.746V51.5399H141.088C141.271 51.5399 141.424 51.5213 141.547 51.4842C141.671 51.4469 141.769 51.3968 141.844 51.3336C141.919 51.2703 141.972 51.1968 142.004 51.1134C142.036 51.0296 142.052 50.9413 142.052 50.8483C142.052 50.6661 141.997 50.5175 141.889 50.4021C141.781 50.2867 141.611 50.2292 141.379 50.2292C141.2 50.2292 141.036 50.2554 140.886 50.3076C140.737 50.36 140.608 50.416 140.5 50.4757L140.371 50.1509C140.502 50.0763 140.656 50.0109 140.833 49.9549C141.011 49.8989 141.202 49.8708 141.407 49.8708C141.59 49.8708 141.749 49.8961 141.883 49.9463C142.017 49.9966 142.129 50.0656 142.217 50.1532C142.306 50.2408 142.371 50.3425 142.414 50.458C142.456 50.5734 142.477 50.6945 142.477 50.8214C142.477 51.034 142.427 51.21 142.326 51.3497C142.225 51.4895 142.076 51.5966 141.878 51.6711V51.6823C142.094 51.7271 142.265 51.8226 142.39 51.9684C142.515 52.1143 142.578 52.3052 142.578 52.5407C142.578 52.6942 142.55 52.8373 142.495 52.9701C142.44 53.1028 142.355 53.2198 142.24 53.3207C142.125 53.4218 141.981 53.5012 141.805 53.5592C141.629 53.617 141.422 53.6462 141.183 53.6462C141.011 53.6462 140.848 53.6293 140.693 53.5957C140.538 53.5621 140.401 53.5193 140.281 53.4669L140.394 53.1251Z" fill="#FFF"/>
</svg>
